{
    "accessors" : [
        {
            "bufferView" : 0,
            "componentType" : 5123,
            "count" : 3168,
            "max" : [
                2630
            ],
            "min" : [
                0
            ],
            "type" : "SCALAR"
        },
        {
            "bufferView" : 1,
            "componentType" : 5126,
            "count" : 2631,
            "max" : [
                0.0583333894610405,
                0.0,
                0.07112327963113785
            ],
            "min" : [
                0.042503535747528076,
                -0.004999999888241291,
                0.005353883374482393
            ],
            "type" : "VEC3"
        },
        {
            "bufferView" : 2,
            "componentType" : 5126,
            "count" : 2631,
            "max" : [
                1.0,
                1.0,
                0.9999709725379944
            ],
            "min" : [
                -1.0,
                -1.0,
                -0.9999995231628418
            ],
            "type" : "VEC3"
        },
        {
            "bufferView" : 3,
            "componentType" : 5126,
            "count" : 2631,
            "max" : [
                1.0,
                0.0012699172366410494,
                1.0,
                1.0
            ],
            "min" : [
                -0.9999709129333496,
                -0.0013352440437301993,
                -1.0,
                1.0
            ],
            "type" : "VEC4"
        },
        {
            "bufferView" : 4,
            "componentType" : 5126,
            "count" : 2631,
            "max" : [
                0.1298176348209381,
                0.48033010959625244
            ],
            "min" : [
                0.1252519190311432,
                0.4757643938064575
            ],
            "type" : "VEC2"
        },
        {
            "bufferView" : 5,
            "componentType" : 5123,
            "count" : 7908,
            "max" : [
                6533
            ],
            "min" : [
                0
            ],
            "type" : "SCALAR"
        },
        {
            "bufferView" : 6,
            "componentType" : 5126,
            "count" : 6534,
            "max" : [
                0.037169426679611206,
                4.934193566441536e-05,
                0.0708806961774826
            ],
            "min" : [
                0.009159864857792854,
                -0.004999999888241291,
                0.005925536155700684
            ],
            "type" : "VEC3"
        },
        {
            "bufferView" : 7,
            "componentType" : 5126,
            "count" : 6534,
            "max" : [
                1.0,
                1.0,
                1.0
            ],
            "min" : [
                -1.0,
                -1.0,
                -1.0
            ],
            "type" : "VEC3"
        },
        {
            "bufferView" : 8,
            "componentType" : 5126,
            "count" : 6534,
            "max" : [
                1.0,
                0.997600793838501,
                1.0,
                1.0
            ],
            "min" : [
                -1.0,
                -0.9975740313529968,
                -1.0,
                1.0
            ],
            "type" : "VEC4"
        },
        {
            "bufferView" : 9,
            "componentType" : 5126,
            "count" : 6534,
            "max" : [
                0.14314347505569458,
                0.5669655799865723
            ],
            "min" : [
                0.13161733746528625,
                0.5396813750267029
            ],
            "type" : "VEC2"
        }
    ],
    "asset" : {
        "generator" : "Khronos Blender glTF 2.0 exporter",
        "version" : "2.0"
    },
    "bufferViews" : [
        {
            "buffer" : 0,
            "byteLength" : 6336,
            "byteOffset" : 0,
            "target" : 34963
        },
        {
            "buffer" : 0,
            "byteLength" : 31572,
            "byteOffset" : 6336,
            "target" : 34962
        },
        {
            "buffer" : 0,
            "byteLength" : 31572,
            "byteOffset" : 37908,
            "target" : 34962
        },
        {
            "buffer" : 0,
            "byteLength" : 42096,
            "byteOffset" : 69480,
            "target" : 34962
        },
        {
            "buffer" : 0,
            "byteLength" : 21048,
            "byteOffset" : 111576,
            "target" : 34962
        },
        {
            "buffer" : 0,
            "byteLength" : 15816,
            "byteOffset" : 132624,
            "target" : 34963
        },
        {
            "buffer" : 0,
            "byteLength" : 78408,
            "byteOffset" : 148440,
            "target" : 34962
        },
        {
            "buffer" : 0,
            "byteLength" : 78408,
            "byteOffset" : 226848,
            "target" : 34962
        },
        {
            "buffer" : 0,
            "byteLength" : 104544,
            "byteOffset" : 305256,
            "target" : 34962
        },
        {
            "buffer" : 0,
            "byteLength" : 52272,
            "byteOffset" : 409800,
            "target" : 34962
        }
    ],
    "buffers" : [
        {
            "byteLength" : 462072,
            "uri" : "RioCreative-01a.bin"
        }
    ],
    "images" : [
        {
            "name" : "Rio-COLORS",
            "uri" : "Rio-COLORS.jpg"
        }
    ],
    "materials" : [
        {
            "name" : "RioTexture",
            "pbrMetallicRoughness" : {
                "baseColorFactor" : [
                    0.6400000190734865,
                    0.6400000190734865,
                    0.6400000190734865,
                    1.0
                ],
                "baseColorTexture" : {
                    "index" : 0
                },
                "metallicFactor" : 0.0
            }
        },
        {
            "name" : "White",
            "pbrMetallicRoughness" : {
                "baseColorFactor" : [
                    0.800000011920929,
                    0.800000011920929,
                    0.800000011920929,
                    1.0
                ],
                "metallicFactor" : 0.0
            }
        }
    ],
    "meshes" : [
        {
            "name" : "CUCurve",
            "primitives" : [
                {
                    "attributes" : {
                        "NORMAL" : 2,
                        "POSITION" : 1,
                        "TANGENT" : 3,
                        "TEXCOORD_0" : 4
                    },
                    "indices" : 0,
                    "material" : 1
                },
                {
                    "attributes" : {
                        "NORMAL" : 7,
                        "POSITION" : 6,
                        "TANGENT" : 8,
                        "TEXCOORD_0" : 9
                    },
                    "indices" : 5,
                    "material" : 0
                }
            ]
        }
    ],
    "nodes" : [
        {
            "mesh" : 0,
            "name" : "R",
            "scale" : [
                37.3834342956543,
                37.3834342956543,
                37.3834342956543
            ]
        }
    ],
    "samplers" : [
        {}
    ],
    "scene" : 0,
    "scenes" : [
        {
            "name" : "Scene",
            "nodes" : [
                0
            ]
        }
    ],
    "textures" : [
        {
            "sampler" : 0,
            "source" : 0
        }
    ]
}
