{
    "accessors" : [
        {
            "bufferView" : 0,
            "componentType" : 5123,
            "count" : 1572,
            "max" : [
                1278
            ],
            "min" : [
                0
            ],
            "type" : "SCALAR"
        },
        {
            "bufferView" : 1,
            "componentType" : 5126,
            "count" : 1279,
            "max" : [
                0.037169426679611206,
                0.0,
                0.0708806961774826
            ],
            "min" : [
                0.032851338386535645,
                -0.004999999888241291,
                0.019062042236328125
            ],
            "type" : "VEC3"
        },
        {
            "bufferView" : 2,
            "componentType" : 5126,
            "count" : 1279,
            "max" : [
                1.0,
                1.0,
                1.0
            ],
            "min" : [
                -1.0,
                -1.0,
                -1.0
            ],
            "type" : "VEC3"
        },
        {
            "bufferView" : 3,
            "componentType" : 5126,
            "count" : 1279,
            "max" : [
                1.0,
                0.0033182199113070965,
                1.0,
                1.0
            ],
            "min" : [
                -1.0,
                -0.003304388141259551,
                -1.0,
                1.0
            ],
            "type" : "VEC4"
        },
        {
            "bufferView" : 4,
            "componentType" : 5126,
            "count" : 1279,
            "max" : [
                0.13947191834449768,
                0.5669655799865723
            ],
            "min" : [
                0.13161733746528625,
                0.5591109991073608
            ],
            "type" : "VEC2"
        },
        {
            "bufferView" : 5,
            "componentType" : 5123,
            "count" : 6336,
            "max" : [
                5254
            ],
            "min" : [
                0
            ],
            "type" : "SCALAR"
        },
        {
            "bufferView" : 6,
            "componentType" : 5126,
            "count" : 5255,
            "max" : [
                0.03063584864139557,
                4.934193566441536e-05,
                0.0708242654800415
            ],
            "min" : [
                0.009159864857792854,
                -0.004999999888241291,
                0.005925536155700684
            ],
            "type" : "VEC3"
        },
        {
            "bufferView" : 7,
            "componentType" : 5126,
            "count" : 5255,
            "max" : [
                1.0,
                1.0,
                1.0
            ],
            "min" : [
                -1.0,
                -1.0,
                -1.0
            ],
            "type" : "VEC3"
        },
        {
            "bufferView" : 8,
            "componentType" : 5126,
            "count" : 5255,
            "max" : [
                1.0,
                0.997600793838501,
                1.0,
                1.0
            ],
            "min" : [
                -1.0,
                -0.9975740313529968,
                -1.0,
                1.0
            ],
            "type" : "VEC4"
        },
        {
            "bufferView" : 9,
            "componentType" : 5126,
            "count" : 5255,
            "max" : [
                0.14314347505569458,
                0.547578752040863
            ],
            "min" : [
                0.13524609804153442,
                0.5396813750267029
            ],
            "type" : "VEC2"
        },
        {
            "bufferView" : 10,
            "componentType" : 5123,
            "count" : 1704,
            "max" : [
                1143
            ],
            "min" : [
                0
            ],
            "type" : "SCALAR"
        },
        {
            "bufferView" : 11,
            "componentType" : 5126,
            "count" : 1144,
            "max" : [
                0.9999994039535522,
                1.0070383548736572,
                0.9999989867210388
            ],
            "min" : [
                -0.999999463558197,
                -1.0070383548736572,
                -0.9999996423721313
            ],
            "type" : "VEC3"
        },
        {
            "bufferView" : 12,
            "componentType" : 5126,
            "count" : 1144,
            "max" : [
                0.9831057786941528,
                0.9874070882797241,
                0.9831056594848633
            ],
            "min" : [
                -0.9831056594848633,
                -0.9874071478843689,
                -0.9831057786941528
            ],
            "type" : "VEC3"
        },
        {
            "bufferView" : 13,
            "componentType" : 5126,
            "count" : 1144,
            "max" : [
                0.9951813220977783,
                0.1577957272529602,
                0.9985764026641846,
                1.0
            ],
            "min" : [
                -0.9973949193954468,
                -0.1577955037355423,
                -0.998576283454895,
                1.0
            ],
            "type" : "VEC4"
        },
        {
            "bufferView" : 14,
            "componentType" : 5126,
            "count" : 1144,
            "max" : [
                1.0000001192092896,
                0.9999979119602358
            ],
            "min" : [
                0.0,
                2.0265579223632812e-06
            ],
            "type" : "VEC2"
        },
        {
            "bufferView" : 15,
            "componentType" : 5123,
            "count" : 16500,
            "max" : [
                13702
            ],
            "min" : [
                0
            ],
            "type" : "SCALAR"
        },
        {
            "bufferView" : 16,
            "componentType" : 5126,
            "count" : 13703,
            "max" : [
                0.05788496136665344,
                0.0,
                0.080227792263031
            ],
            "min" : [
                0.010131608694791794,
                -0.0020000000949949026,
                0.07234123349189758
            ],
            "type" : "VEC3"
        },
        {
            "bufferView" : 17,
            "componentType" : 5126,
            "count" : 13703,
            "max" : [
                1.0,
                1.0,
                1.0
            ],
            "min" : [
                -1.0,
                -1.0,
                -1.0
            ],
            "type" : "VEC3"
        },
        {
            "bufferView" : 18,
            "componentType" : 5126,
            "count" : 13703,
            "max" : [
                1.0,
                0.9885098934173584,
                1.0,
                1.0
            ],
            "min" : [
                -1.0,
                -0.9968005418777466,
                -1.0,
                1.0
            ],
            "type" : "VEC4"
        },
        {
            "bufferView" : 19,
            "componentType" : 5126,
            "count" : 13703,
            "max" : [
                0.933815062046051,
                0.49444371461868286
            ],
            "min" : [
                0.9119094014167786,
                0.4725380539894104
            ],
            "type" : "VEC2"
        },
        {
            "bufferView" : 20,
            "componentType" : 5123,
            "count" : 3168,
            "max" : [
                2630
            ],
            "min" : [
                0
            ],
            "type" : "SCALAR"
        },
        {
            "bufferView" : 21,
            "componentType" : 5126,
            "count" : 2631,
            "max" : [
                0.0583333894610405,
                0.0,
                0.07112327963113785
            ],
            "min" : [
                0.042503535747528076,
                -0.004999999888241291,
                0.005353883374482393
            ],
            "type" : "VEC3"
        },
        {
            "bufferView" : 22,
            "componentType" : 5126,
            "count" : 2631,
            "max" : [
                1.0,
                1.0,
                0.9999709725379944
            ],
            "min" : [
                -1.0,
                -1.0,
                -0.9999995231628418
            ],
            "type" : "VEC3"
        },
        {
            "bufferView" : 23,
            "componentType" : 5126,
            "count" : 2631,
            "max" : [
                1.0,
                0.0012699172366410494,
                1.0,
                1.0
            ],
            "min" : [
                -0.9999709129333496,
                -0.0013352440437301993,
                -1.0,
                1.0
            ],
            "type" : "VEC4"
        },
        {
            "bufferView" : 24,
            "componentType" : 5126,
            "count" : 2631,
            "max" : [
                0.1298176348209381,
                0.48033010959625244
            ],
            "min" : [
                0.1252519190311432,
                0.4757643938064575
            ],
            "type" : "VEC2"
        }
    ],
    "asset" : {
        "generator" : "Khronos Blender glTF 2.0 exporter",
        "version" : "2.0"
    },
    "bufferViews" : [
        {
            "buffer" : 0,
            "byteLength" : 3144,
            "byteOffset" : 0,
            "target" : 34963
        },
        {
            "buffer" : 0,
            "byteLength" : 15348,
            "byteOffset" : 3144,
            "target" : 34962
        },
        {
            "buffer" : 0,
            "byteLength" : 15348,
            "byteOffset" : 18492,
            "target" : 34962
        },
        {
            "buffer" : 0,
            "byteLength" : 20464,
            "byteOffset" : 33840,
            "target" : 34962
        },
        {
            "buffer" : 0,
            "byteLength" : 10232,
            "byteOffset" : 54304,
            "target" : 34962
        },
        {
            "buffer" : 0,
            "byteLength" : 12672,
            "byteOffset" : 64536,
            "target" : 34963
        },
        {
            "buffer" : 0,
            "byteLength" : 63060,
            "byteOffset" : 77208,
            "target" : 34962
        },
        {
            "buffer" : 0,
            "byteLength" : 63060,
            "byteOffset" : 140268,
            "target" : 34962
        },
        {
            "buffer" : 0,
            "byteLength" : 84080,
            "byteOffset" : 203328,
            "target" : 34962
        },
        {
            "buffer" : 0,
            "byteLength" : 42040,
            "byteOffset" : 287408,
            "target" : 34962
        },
        {
            "buffer" : 0,
            "byteLength" : 3408,
            "byteOffset" : 329448,
            "target" : 34963
        },
        {
            "buffer" : 0,
            "byteLength" : 13728,
            "byteOffset" : 332856,
            "target" : 34962
        },
        {
            "buffer" : 0,
            "byteLength" : 13728,
            "byteOffset" : 346584,
            "target" : 34962
        },
        {
            "buffer" : 0,
            "byteLength" : 18304,
            "byteOffset" : 360312,
            "target" : 34962
        },
        {
            "buffer" : 0,
            "byteLength" : 9152,
            "byteOffset" : 378616,
            "target" : 34962
        },
        {
            "buffer" : 0,
            "byteLength" : 33000,
            "byteOffset" : 387768,
            "target" : 34963
        },
        {
            "buffer" : 0,
            "byteLength" : 164436,
            "byteOffset" : 420768,
            "target" : 34962
        },
        {
            "buffer" : 0,
            "byteLength" : 164436,
            "byteOffset" : 585204,
            "target" : 34962
        },
        {
            "buffer" : 0,
            "byteLength" : 219248,
            "byteOffset" : 749640,
            "target" : 34962
        },
        {
            "buffer" : 0,
            "byteLength" : 109624,
            "byteOffset" : 968888,
            "target" : 34962
        },
        {
            "buffer" : 0,
            "byteLength" : 6336,
            "byteOffset" : 1078512,
            "target" : 34963
        },
        {
            "buffer" : 0,
            "byteLength" : 31572,
            "byteOffset" : 1084848,
            "target" : 34962
        },
        {
            "buffer" : 0,
            "byteLength" : 31572,
            "byteOffset" : 1116420,
            "target" : 34962
        },
        {
            "buffer" : 0,
            "byteLength" : 42096,
            "byteOffset" : 1147992,
            "target" : 34962
        },
        {
            "buffer" : 0,
            "byteLength" : 21048,
            "byteOffset" : 1190088,
            "target" : 34962
        }
    ],
    "buffers" : [
        {
            "byteLength" : 1211136,
            "uri" : "RioCreative-01.bin"
        }
    ],
    "images" : [
        {
            "name" : "1_earth_2k.jpg",
            "uri" : "1_earth_2k.jpg.jpg"
        }
    ],
    "materials" : [
        {
            "name" : "EarthMat",
            "pbrMetallicRoughness" : {
                "baseColorFactor" : [
                    0.6400000190734865,
                    0.6400000190734865,
                    0.6400000190734865,
                    1.0
                ],
                "baseColorTexture" : {
                    "index" : 0
                },
                "metallicFactor" : 0.0
            }
        },
        {
            "name" : "Orange",
            "pbrMetallicRoughness" : {
                "baseColorFactor" : [
                    0.6905257804770137,
                    0.09154830115360468,
                    0.043584228211406284,
                    1.0
                ],
                "metallicFactor" : 0.0
            }
        },
        {
            "name" : "White",
            "pbrMetallicRoughness" : {
                "baseColorFactor" : [
                    0.800000011920929,
                    0.800000011920929,
                    0.800000011920929,
                    1.0
                ],
                "metallicFactor" : 0.0
            }
        }
    ],
    "meshes" : [
        {
            "name" : "CUCurve.002",
            "primitives" : [
                {
                    "attributes" : {
                        "NORMAL" : 2,
                        "POSITION" : 1,
                        "TANGENT" : 3,
                        "TEXCOORD_0" : 4
                    },
                    "indices" : 0,
                    "material" : 2
                }
            ]
        },
        {
            "name" : "CUCurve",
            "primitives" : [
                {
                    "attributes" : {
                        "NORMAL" : 7,
                        "POSITION" : 6,
                        "TANGENT" : 8,
                        "TEXCOORD_0" : 9
                    },
                    "indices" : 5,
                    "material" : 2
                }
            ]
        },
        {
            "name" : "Sphere",
            "primitives" : [
                {
                    "attributes" : {
                        "NORMAL" : 12,
                        "POSITION" : 11,
                        "TANGENT" : 13,
                        "TEXCOORD_0" : 14
                    },
                    "indices" : 10,
                    "material" : 0
                }
            ]
        },
        {
            "name" : "CUCurve.007",
            "primitives" : [
                {
                    "attributes" : {
                        "NORMAL" : 17,
                        "POSITION" : 16,
                        "TANGENT" : 18,
                        "TEXCOORD_0" : 19
                    },
                    "indices" : 15,
                    "material" : 1
                }
            ]
        },
        {
            "name" : "CUCurve.001",
            "primitives" : [
                {
                    "attributes" : {
                        "NORMAL" : 22,
                        "POSITION" : 21,
                        "TANGENT" : 23,
                        "TEXCOORD_0" : 24
                    },
                    "indices" : 20,
                    "material" : 2
                }
            ]
        }
    ],
    "nodes" : [
        {
            "mesh" : 3,
            "name" : "Creative",
            "scale" : [
                37.3834342956543,
                37.3834342956543,
                37.3834342956543
            ],
            "translation" : [
                0.0,
                -0.05060397461056709,
                -0.0
            ]
        },
        {
            "mesh" : 2,
            "name" : "Earth",
            "rotation" : [
                -0.42697131633758545,
                -0.5636448860168457,
                0.5636448860168457,
                0.42697128653526306
            ],
            "scale" : [
                0.1143561452627182,
                0.1143561452627182,
                0.1143561452627182
            ],
            "translation" : [
                1.3060963153839111,
                -0.09630230069160461,
                0.4820592999458313
            ]
        },
        {
            "mesh" : 0,
            "name" : "i",
            "scale" : [
                37.3834342956543,
                37.3834342956543,
                37.3834342956543
            ]
        },
        {
            "mesh" : 4,
            "name" : "O",
            "scale" : [
                37.3834342956543,
                37.3834342956543,
                37.3834342956543
            ]
        },
        {
            "mesh" : 1,
            "name" : "R",
            "scale" : [
                37.3834342956543,
                37.3834342956543,
                37.3834342956543
            ]
        }
    ],
    "samplers" : [
        {}
    ],
    "scene" : 0,
    "scenes" : [
        {
            "name" : "Scene",
            "nodes" : [
                1,
                0,
                2,
                3,
                4
            ]
        }
    ],
    "textures" : [
        {
            "sampler" : 0,
            "source" : 0
        }
    ]
}
