{
    "accessors" : [
        {
            "bufferView" : 0,
            "componentType" : 5123,
            "count" : 11076,
            "max" : [
                9164
            ],
            "min" : [
                0
            ],
            "type" : "SCALAR"
        },
        {
            "bufferView" : 1,
            "componentType" : 5126,
            "count" : 9165,
            "max" : [
                0.023972582072019577,
                0.00252576288767159,
                0.028427179902791977
            ],
            "min" : [
                -0.025200942531228065,
                -0.0025235789362341166,
                -0.037342216819524765
            ],
            "type" : "VEC3"
        },
        {
            "bufferView" : 2,
            "componentType" : 5126,
            "count" : 9165,
            "max" : [
                1.0,
                1.0,
                1.0
            ],
            "min" : [
                -1.0,
                -1.0,
                -1.0
            ],
            "type" : "VEC3"
        },
        {
            "bufferView" : 3,
            "componentType" : 5126,
            "count" : 9165,
            "max" : [
                1.0,
                0.997600793838501,
                1.0,
                1.0
            ],
            "min" : [
                -1.0,
                -0.9975740313529968,
                -1.0,
                1.0
            ],
            "type" : "VEC4"
        },
        {
            "bufferView" : 4,
            "componentType" : 5126,
            "count" : 9165,
            "max" : [
                0.06579973548650742,
                0.40539127588272095
            ],
            "min" : [
                0.05790235847234726,
                0.3971969485282898
            ],
            "type" : "VEC2"
        },
        {
            "bufferView" : 5,
            "componentType" : 5123,
            "count" : 16500,
            "max" : [
                13702
            ],
            "min" : [
                0
            ],
            "type" : "SCALAR"
        },
        {
            "bufferView" : 6,
            "componentType" : 5126,
            "count" : 13703,
            "max" : [
                0.02352415770292282,
                0.0011227739742025733,
                0.037531692534685135
            ],
            "min" : [
                -0.024229194968938828,
                -0.0008772261207923293,
                0.029645133763551712
            ],
            "type" : "VEC3"
        },
        {
            "bufferView" : 7,
            "componentType" : 5126,
            "count" : 13703,
            "max" : [
                1.0,
                1.0,
                1.0
            ],
            "min" : [
                -1.0,
                -1.0,
                -1.0
            ],
            "type" : "VEC3"
        },
        {
            "bufferView" : 8,
            "componentType" : 5126,
            "count" : 13703,
            "max" : [
                1.0,
                0.9885098934173584,
                1.0,
                1.0
            ],
            "min" : [
                -1.0,
                -0.9968005418777466,
                -1.0,
                1.0
            ],
            "type" : "VEC4"
        },
        {
            "bufferView" : 9,
            "componentType" : 5126,
            "count" : 13703,
            "max" : [
                0.933815062046051,
                0.49444371461868286
            ],
            "min" : [
                0.9119094014167786,
                0.4725380539894104
            ],
            "type" : "VEC2"
        },
        {
            "bufferView" : 10,
            "componentType" : 5123,
            "count" : 1629,
            "max" : [
                1118
            ],
            "min" : [
                0
            ],
            "type" : "SCALAR"
        },
        {
            "bufferView" : 11,
            "componentType" : 5126,
            "count" : 1119,
            "max" : [
                0.9175625443458557,
                10.749126434326172,
                0.8272356390953064
            ],
            "min" : [
                -1.0824363231658936,
                8.735050201416016,
                -1.1727629899978638
            ],
            "type" : "VEC3"
        },
        {
            "bufferView" : 12,
            "componentType" : 5126,
            "count" : 1119,
            "max" : [
                0.9831056594848633,
                0.9874075055122375,
                0.9831056594848633
            ],
            "min" : [
                -0.9831056594848633,
                -0.9874075651168823,
                -0.9831057190895081
            ],
            "type" : "VEC3"
        },
        {
            "bufferView" : 13,
            "componentType" : 5126,
            "count" : 1119,
            "max" : [
                0.9914453029632568,
                0.15478678047657013,
                0.9914453029632568,
                1.0
            ],
            "min" : [
                -0.9914455413818359,
                -0.1547921746969223,
                -0.9914452433586121,
                1.0
            ],
            "type" : "VEC4"
        },
        {
            "bufferView" : 14,
            "componentType" : 5126,
            "count" : 1119,
            "max" : [
                1.0000001192092896,
                0.9999979119602358
            ],
            "min" : [
                0.0,
                2.0265579223632812e-06
            ],
            "type" : "VEC2"
        }
    ],
    "asset" : {
        "generator" : "Khronos Blender glTF 2.0 exporter",
        "version" : "2.0"
    },
    "bufferViews" : [
        {
            "buffer" : 0,
            "byteLength" : 22152,
            "byteOffset" : 0,
            "target" : 34963
        },
        {
            "buffer" : 0,
            "byteLength" : 109980,
            "byteOffset" : 22152,
            "target" : 34962
        },
        {
            "buffer" : 0,
            "byteLength" : 109980,
            "byteOffset" : 132132,
            "target" : 34962
        },
        {
            "buffer" : 0,
            "byteLength" : 146640,
            "byteOffset" : 242112,
            "target" : 34962
        },
        {
            "buffer" : 0,
            "byteLength" : 73320,
            "byteOffset" : 388752,
            "target" : 34962
        },
        {
            "buffer" : 0,
            "byteLength" : 33000,
            "byteOffset" : 462072,
            "target" : 34963
        },
        {
            "buffer" : 0,
            "byteLength" : 164436,
            "byteOffset" : 495072,
            "target" : 34962
        },
        {
            "buffer" : 0,
            "byteLength" : 164436,
            "byteOffset" : 659508,
            "target" : 34962
        },
        {
            "buffer" : 0,
            "byteLength" : 219248,
            "byteOffset" : 823944,
            "target" : 34962
        },
        {
            "buffer" : 0,
            "byteLength" : 109624,
            "byteOffset" : 1043192,
            "target" : 34962
        },
        {
            "buffer" : 0,
            "byteLength" : 3258,
            "byteOffset" : 1152816,
            "target" : 34963
        },
        {
            "buffer" : 0,
            "byteLength" : 13428,
            "byteOffset" : 1156076,
            "target" : 34962
        },
        {
            "buffer" : 0,
            "byteLength" : 13428,
            "byteOffset" : 1169504,
            "target" : 34962
        },
        {
            "buffer" : 0,
            "byteLength" : 17904,
            "byteOffset" : 1182932,
            "target" : 34962
        },
        {
            "buffer" : 0,
            "byteLength" : 8952,
            "byteOffset" : 1200836,
            "target" : 34962
        }
    ],
    "buffers" : [
        {
            "byteLength" : 1209788,
            "uri" : "RioCreative-02.bin"
        }
    ],
    "images" : [
        {
            "mimeType" : "image/jpeg",
            "name" : "1_earth_1k.jpg",
            "uri" : "data:image/jpeg;base64,"
        },
        {
            "mimeType" : "image/jpeg",
            "name" : "Rio-COLORS",
            "uri" : "data:image/jpeg;base64,"
        }
    ],
    "materials" : [
        {
            "name" : "EarthMat",
            "pbrMetallicRoughness" : {
                "baseColorFactor" : [
                    0.6400000190734865,
                    0.6400000190734865,
                    0.6400000190734865,
                    1.0
                ],
                "baseColorTexture" : {
                    "index" : 0
                },
                "metallicFactor" : 0.0
            }
        },
        {
            "name" : "RioTexture",
            "pbrMetallicRoughness" : {
                "baseColorFactor" : [
                    0.6400000190734865,
                    0.6400000190734865,
                    0.6400000190734865,
                    1.0
                ],
                "baseColorTexture" : {
                    "index" : 1
                },
                "metallicFactor" : 0.0
            }
        }
    ],
    "meshes" : [
        {
            "name" : "CUCurve",
            "primitives" : [
                {
                    "attributes" : {
                        "NORMAL" : 2,
                        "POSITION" : 1,
                        "TANGENT" : 3,
                        "TEXCOORD_0" : 4
                    },
                    "indices" : 0,
                    "material" : 1
                }
            ]
        },
        {
            "name" : "CUCurve.007",
            "primitives" : [
                {
                    "attributes" : {
                        "NORMAL" : 7,
                        "POSITION" : 6,
                        "TANGENT" : 8,
                        "TEXCOORD_0" : 9
                    },
                    "indices" : 5,
                    "material" : 1
                }
            ]
        },
        {
            "name" : "Sphere",
            "primitives" : [
                {
                    "attributes" : {
                        "NORMAL" : 12,
                        "POSITION" : 11,
                        "TANGENT" : 13,
                        "TEXCOORD_0" : 14
                    },
                    "indices" : 10,
                    "material" : 0
                }
            ]
        }
    ],
    "nodes" : [
        {
            "mesh" : 1,
            "name" : "Creative",
            "scale" : [
                37.3834342956543,
                37.3834342956543,
                37.3834342956543
            ]
        },
        {
            "mesh" : 2,
            "name" : "Earth",
            "rotation" : [
                -0.42697131633758545,
                -0.5636448860168457,
                0.5636448860168457,
                0.42697128653526306
            ],
            "scale" : [
                0.1143561452627182,
                0.1143561452627182,
                0.1143561452627182
            ]
        },
        {
            "mesh" : 0,
            "name" : "R",
            "scale" : [
                37.3834342956543,
                37.3834342956543,
                37.3834342956543
            ]
        }
    ],
    "samplers" : [
        {}
    ],
    "scene" : 0,
    "scenes" : [
        {
            "name" : "Scene",
            "nodes" : [
                1,
                0,
                2
            ]
        }
    ],
    "textures" : [
        {
            "sampler" : 0,
            "source" : 0
        },
        {
            "sampler" : 0,
            "source" : 1
        }
    ]
}
