{
    "accessors": [
        {
            "bufferView": 5,
            "byteOffset": 0,
            "componentType": 5126,
            "count": 892,
            "max": [
                7.537354469299316,
                4.102654933929443,
                0.6945828795433044
            ],
            "min": [
                -6.766996383666992,
                0.19045382738113403,
                -0.6942935585975647
            ],
            "name": "accessor_buffer_Mesh.001_POSITION_0",
            "type": "VEC3"
        },
        {
            "bufferView": 11,
            "byteOffset": 0,
            "componentType": 5126,
            "count": 1895,
            "max": [
                0.9034773707389832,
                0.7409023642539978
            ],
            "min": [
                0.8075460195541382,
                0.24062597751617432
            ],
            "name": "accessor_buffer_Mesh.005_TEXCOORD_0_0",
            "type": "VEC2"
        },
        {
            "bufferView": 2,
            "byteOffset": 0,
            "componentType": 5126,
            "count": 6041,
            "max": [
                0.5630924105644226,
                0.7619479894638062
            ],
            "min": [
                0.41486042737960815,
                0.14810538291931152
            ],
            "name": "accessor_buffer_Mesh_TEXCOORD_0_0",
            "type": "VEC2"
        },
        {
            "bufferView": 8,
            "byteOffset": 0,
            "componentType": 5123,
            "count": 2610,
            "max": [
                891
            ],
            "min": [
                0
            ],
            "name": "accessor_buffer_Mesh.001_0",
            "type": "SCALAR"
        },
        {
            "bufferView": 12,
            "byteOffset": 0,
            "componentType": 5123,
            "count": 5502,
            "max": [
                1894
            ],
            "min": [
                0
            ],
            "name": "accessor_buffer_Mesh.005_0",
            "type": "SCALAR"
        },
        {
            "bufferView": 0,
            "byteOffset": 0,
            "componentType": 5126,
            "count": 6041,
            "max": [
                7.6352739334106445,
                4.208176612854004,
                0.8297232389450073
            ],
            "min": [
                -6.8632988929748535,
                0.08504486083984375,
                -0.8297262787818909
            ],
            "name": "accessor_buffer_Mesh_POSITION_0",
            "type": "VEC3"
        },
        {
            "bufferView": 7,
            "byteOffset": 0,
            "componentType": 5126,
            "count": 892,
            "max": [
                0.2360365092754364,
                0.8410024046897888
            ],
            "min": [
                0.11922665685415268,
                0.1524655818939209
            ],
            "name": "accessor_buffer_Mesh.001_TEXCOORD_0_0",
            "type": "VEC2"
        },
        {
            "bufferView": 1,
            "byteOffset": 0,
            "componentType": 5126,
            "count": 6041,
            "max": [
                0.9512019753456116,
                0.8522614240646362,
                1.0
            ],
            "min": [
                -0.829462468624115,
                -0.8284639120101929,
                -1.0
            ],
            "name": "accessor_buffer_Mesh_NORMAL_0",
            "type": "VEC3"
        },
        {
            "bufferView": 10,
            "byteOffset": 0,
            "componentType": 5126,
            "count": 1895,
            "max": [
                0.8145474195480347,
                0.7884178161621094,
                1.0
            ],
            "min": [
                -0.8163042068481445,
                -0.8279200792312622,
                -1.0
            ],
            "name": "accessor_buffer_Mesh.005_NORMAL_0",
            "type": "VEC3"
        },
        {
            "bufferView": 6,
            "byteOffset": 0,
            "componentType": 5126,
            "count": 892,
            "max": [
                0.8173055648803711,
                0.838045060634613,
                1.0
            ],
            "min": [
                -0.8170953392982483,
                -0.8370615839958191,
                -1.0
            ],
            "name": "accessor_buffer_Mesh.001_NORMAL_0",
            "type": "VEC3"
        },
        {
            "bufferView": 9,
            "byteOffset": 0,
            "componentType": 5126,
            "count": 1895,
            "max": [
                3.292793035507202,
                4.111162185668945,
                0.6898372173309326
            ],
            "min": [
                -6.523409366607666,
                3.210747718811035,
                -0.689861536026001
            ],
            "name": "accessor_buffer_Mesh.005_POSITION_0",
            "type": "VEC3"
        },
        {
            "bufferView": 4,
            "byteOffset": 0,
            "componentType": 5123,
            "count": 16026,
            "max": [
                6040
            ],
            "min": [
                0
            ],
            "name": "accessor_buffer_Mesh_1",
            "type": "SCALAR"
        },
        {
            "bufferView": 3,
            "byteOffset": 0,
            "componentType": 5123,
            "count": 1920,
            "max": [
                6038
            ],
            "min": [
                5
            ],
            "name": "accessor_buffer_Mesh_0",
            "type": "SCALAR"
        }
    ],
    "asset": {
        "copyright": "",
        "generator": "blendergltf v1.2.0",
        "version": "2.0"
    },
    "bufferViews": [
        {
            "buffer": 0,
            "byteLength": 72492,
            "byteOffset": 0,
            "byteStride": 12,
            "name": "bufferView_buffer_Mesh_POSITION_0",
            "target": 34962
        },
        {
            "buffer": 0,
            "byteLength": 72492,
            "byteOffset": 72492,
            "byteStride": 12,
            "name": "bufferView_buffer_Mesh_NORMAL_0",
            "target": 34962
        },
        {
            "buffer": 0,
            "byteLength": 48328,
            "byteOffset": 144984,
            "byteStride": 8,
            "name": "bufferView_buffer_Mesh_TEXCOORD_0_0",
            "target": 34962
        },
        {
            "buffer": 0,
            "byteLength": 3844,
            "byteOffset": 193312,
            "name": "bufferView_buffer_Mesh_0",
            "target": 34963
        },
        {
            "buffer": 0,
            "byteLength": 32056,
            "byteOffset": 197156,
            "name": "bufferView_buffer_Mesh_1",
            "target": 34963
        },
        {
            "buffer": 0,
            "byteLength": 10704,
            "byteOffset": 229212,
            "byteStride": 12,
            "name": "bufferView_buffer_Mesh.001_POSITION_0",
            "target": 34962
        },
        {
            "buffer": 0,
            "byteLength": 10704,
            "byteOffset": 239916,
            "byteStride": 12,
            "name": "bufferView_buffer_Mesh.001_NORMAL_0",
            "target": 34962
        },
        {
            "buffer": 0,
            "byteLength": 7136,
            "byteOffset": 250620,
            "byteStride": 8,
            "name": "bufferView_buffer_Mesh.001_TEXCOORD_0_0",
            "target": 34962
        },
        {
            "buffer": 0,
            "byteLength": 5224,
            "byteOffset": 257756,
            "name": "bufferView_buffer_Mesh.001_0",
            "target": 34963
        },
        {
            "buffer": 0,
            "byteLength": 22740,
            "byteOffset": 262980,
            "byteStride": 12,
            "name": "bufferView_buffer_Mesh.005_POSITION_0",
            "target": 34962
        },
        {
            "buffer": 0,
            "byteLength": 22740,
            "byteOffset": 285720,
            "byteStride": 12,
            "name": "bufferView_buffer_Mesh.005_NORMAL_0",
            "target": 34962
        },
        {
            "buffer": 0,
            "byteLength": 15160,
            "byteOffset": 308460,
            "byteStride": 8,
            "name": "bufferView_buffer_Mesh.005_TEXCOORD_0_0",
            "target": 34962
        },
        {
            "buffer": 0,
            "byteLength": 11008,
            "byteOffset": 323620,
            "name": "bufferView_buffer_Mesh.005_0",
            "target": 34963
        }
    ],
    "buffers": [
        {
            "byteLength": 334628,
            "name": "buffer_SMV-MODEL-10b",
            "uri": "buffer_SMV-MODEL-10b.bin"
        }
    ],
    "images": [
        {
            "name": "SMV_Texture.jpg",
            "uri": ""
        }
    ],
    "materials": [
        {
            "alphaMode": "OPAQUE",
            "doubleSided": false,
            "emissiveFactor": [
                0.0,
                0.0,
                0.0
            ],
            "name": "Black",
            "pbrMetallicRoughness": {
                "baseColorFactor": [
                    0.0,
                    0.0,
                    0.0,
                    1.0
                ],
                "metallicFactor": 0.0,
                "roughnessFactor": 1.0
            }
        },
        {
            "alphaMode": "OPAQUE",
            "doubleSided": false,
            "emissiveFactor": [
                0.0,
                0.0,
                0.0
            ],
            "name": "SMV",
            "pbrMetallicRoughness": {
                "baseColorFactor": [
                    0.64000004529953,
                    0.64000004529953,
                    0.64000004529953,
                    1.0
                ],
                "baseColorTexture": {
                    "index": 0,
                    "texCoord": 0
                },
                "metallicFactor": 0.0,
                "roughnessFactor": 1.0
            }
        },
        {
            "alphaMode": "OPAQUE",
            "doubleSided": false,
            "emissiveFactor": [
                0.0,
                0.0,
                0.0
            ],
            "name": "White",
            "pbrMetallicRoughness": {
                "baseColorFactor": [
                    0.800000011920929,
                    0.800000011920929,
                    0.800000011920929,
                    1.0
                ],
                "metallicFactor": 0.0,
                "roughnessFactor": 1.0
            }
        },
        {
            "alphaMode": "OPAQUE",
            "doubleSided": false,
            "emissiveFactor": [
                0.0,
                0.0,
                0.0
            ],
            "name": "Yellow",
            "pbrMetallicRoughness": {
                "baseColorFactor": [
                    0.800000011920929,
                    0.48306193947792053,
                    0.0,
                    1.0
                ],
                "metallicFactor": 0.0,
                "roughnessFactor": 1.0
            }
        }
    ],
    "meshes": [
        {
            "name": "Mesh",
            "primitives": [
                {
                    "attributes": {
                        "NORMAL": 7,
                        "POSITION": 5,
                        "TEXCOORD_0": 2
                    },
                    "indices": 12,
                    "material": 0,
                    "mode": 4
                },
                {
                    "attributes": {
                        "NORMAL": 7,
                        "POSITION": 5,
                        "TEXCOORD_0": 2
                    },
                    "indices": 11,
                    "material": 1,
                    "mode": 4
                }
            ]
        },
        {
            "name": "Mesh.001",
            "primitives": [
                {
                    "attributes": {
                        "NORMAL": 9,
                        "POSITION": 0,
                        "TEXCOORD_0": 6
                    },
                    "indices": 3,
                    "material": 1,
                    "mode": 4
                }
            ]
        },
        {
            "name": "Mesh.005",
            "primitives": [
                {
                    "attributes": {
                        "NORMAL": 8,
                        "POSITION": 10,
                        "TEXCOORD_0": 1
                    },
                    "indices": 4,
                    "material": 1,
                    "mode": 4
                }
            ]
        }
    ],
    "nodes": [
        {
            "mesh": 0,
            "name": "Black",
            "rotation": [
                0.0,
                0.0,
                0.0,
                1.0
            ],
            "scale": [
                1.0,
                1.0,
                1.0
            ],
            "translation": [
                0.0,
                0.0,
                0.0
            ]
        },
        {
            "mesh": 2,
            "name": "White",
            "rotation": [
                0.0,
                0.0,
                0.0,
                1.0
            ],
            "scale": [
                1.0,
                1.0,
                1.0
            ],
            "translation": [
                0.0,
                0.0,
                0.0
            ]
        },
        {
            "mesh": 1,
            "name": "Yellow",
            "rotation": [
                0.0,
                0.0,
                0.0,
                1.0
            ],
            "scale": [
                1.0,
                1.0,
                1.0
            ],
            "translation": [
                0.0,
                0.0,
                0.0
            ]
        }
    ],
    "scene": 0,
    "scenes": [
        {
            "extras": {
                "background_color": [
                    0.05087608844041824,
                    0.05087608844041824,
                    0.05087608844041824
                ],
                "frames_per_second": 24
            },
            "name": "Scene",
            "nodes": [
                2,
                1,
                0
            ]
        }
    ],
    "textures": [
        {
            "name": "SMV_Texture.jpg"
        }
    ]
}
