{
    "accessors" : [
        {
            "bufferView" : 0,
            "componentType" : 5121,
            "count" : 228,
            "max" : [
                180
            ],
            "min" : [
                0
            ],
            "type" : "SCALAR"
        },
        {
            "bufferView" : 1,
            "componentType" : 5126,
            "count" : 181,
            "max" : [
                0.3495016396045685,
                -8.487186420325088e-08,
                0.24359554052352905
            ],
            "min" : [
                -0.00568485027179122,
                -0.04245808720588684,
                -0.24370147287845612
            ],
            "type" : "VEC3"
        },
        {
            "bufferView" : 2,
            "componentType" : 5126,
            "count" : 181,
            "max" : [
                1.0,
                1.0,
                1.0
            ],
            "min" : [
                -1.0,
                -1.0,
                -1.0
            ],
            "type" : "VEC3"
        },
        {
            "bufferView" : 3,
            "componentType" : 5126,
            "count" : 181,
            "max" : [
                1.0,
                0.9995962381362915,
                1.0,
                1.0
            ],
            "min" : [
                -1.0,
                -0.9995962381362915,
                -0.6196276545524597,
                -1.0
            ],
            "type" : "VEC4"
        },
        {
            "bufferView" : 4,
            "componentType" : 5126,
            "count" : 181,
            "max" : [
                0.984375,
                0.7890625
            ],
            "min" : [
                0.01171875,
                0.017578125
            ],
            "type" : "VEC2"
        },
        {
            "bufferView" : 5,
            "componentType" : 5126,
            "count" : 181,
            "max" : [
                1.0,
                1.0,
                1.0,
                1.0
            ],
            "min" : [
                0.9911020976428037,
                0.9911020976428037,
                0.9911020976428037,
                1.0
            ],
            "type" : "VEC4"
        },
        {
            "bufferView" : 6,
            "componentType" : 5123,
            "count" : 456,
            "max" : [
                330
            ],
            "min" : [
                0
            ],
            "type" : "SCALAR"
        },
        {
            "bufferView" : 7,
            "componentType" : 5126,
            "count" : 331,
            "max" : [
                0.39713090658187866,
                0.06992825120687485,
                0.24359530210494995
            ],
            "min" : [
                -0.0057210479862987995,
                -8.072688046922849e-07,
                -0.24370171129703522
            ],
            "type" : "VEC3"
        },
        {
            "bufferView" : 8,
            "componentType" : 5126,
            "count" : 331,
            "max" : [
                1.0,
                1.0,
                1.0
            ],
            "min" : [
                -1.0,
                -1.0,
                -1.0
            ],
            "type" : "VEC3"
        },
        {
            "bufferView" : 9,
            "componentType" : 5126,
            "count" : 331,
            "max" : [
                1.0,
                1.0,
                1.0,
                1.0
            ],
            "min" : [
                -0.9173312187194824,
                -1.0,
                -1.0,
                -1.0
            ],
            "type" : "VEC4"
        },
        {
            "bufferView" : 10,
            "componentType" : 5126,
            "count" : 331,
            "max" : [
                0.984375,
                0.984375
            ],
            "min" : [
                0.01171875,
                0.01171875
            ],
            "type" : "VEC2"
        },
        {
            "bufferView" : 11,
            "componentType" : 5126,
            "count" : 331,
            "max" : [
                1.0,
                1.0,
                1.0,
                1.0
            ],
            "min" : [
                0.9911020976428037,
                0.9911020976428037,
                0.9911020976428037,
                1.0
            ],
            "type" : "VEC4"
        }
    ],
    "asset" : {
        "generator" : "Khronos Blender glTF 2.0 exporter",
        "version" : "2.0"
    },
    "bufferViews" : [
        {
            "buffer" : 0,
            "byteLength" : 228,
            "byteOffset" : 0,
            "target" : 34963
        },
        {
            "buffer" : 0,
            "byteLength" : 2172,
            "byteOffset" : 228,
            "target" : 34962
        },
        {
            "buffer" : 0,
            "byteLength" : 2172,
            "byteOffset" : 2400,
            "target" : 34962
        },
        {
            "buffer" : 0,
            "byteLength" : 2896,
            "byteOffset" : 4572,
            "target" : 34962
        },
        {
            "buffer" : 0,
            "byteLength" : 1448,
            "byteOffset" : 7468,
            "target" : 34962
        },
        {
            "buffer" : 0,
            "byteLength" : 2896,
            "byteOffset" : 8916,
            "target" : 34962
        },
        {
            "buffer" : 0,
            "byteLength" : 912,
            "byteOffset" : 11812,
            "target" : 34963
        },
        {
            "buffer" : 0,
            "byteLength" : 3972,
            "byteOffset" : 12724,
            "target" : 34962
        },
        {
            "buffer" : 0,
            "byteLength" : 3972,
            "byteOffset" : 16696,
            "target" : 34962
        },
        {
            "buffer" : 0,
            "byteLength" : 5296,
            "byteOffset" : 20668,
            "target" : 34962
        },
        {
            "buffer" : 0,
            "byteLength" : 2648,
            "byteOffset" : 25964,
            "target" : 34962
        },
        {
            "buffer" : 0,
            "byteLength" : 5296,
            "byteOffset" : 28612,
            "target" : 34962
        }
    ],
    "buffers" : [
        {
            "byteLength" : 33908,
            "uri" : "suitcase01.bin"
        }
    ],
    "images" : [
        {
            "name" : "suitcase_01_diffuse",
            "uri" : "suitcase_01_diffuse.jpg"
        },
        {
            "name" : "suitcase_01_normal",
            "uri" : "suitcase_01_normal.jpg"
        }
    ],
    "materials" : [
        {
            "name" : "Material",
            "normalTexture" : {
                "index" : 1
            },
            "pbrMetallicRoughness" : {
                "baseColorFactor" : [
                    0.800000011920929,
                    0.800000011920929,
                    0.800000011920929,
                    1.0
                ],
                "baseColorTexture" : {
                    "index" : 0
                },
                "metallicFactor" : 0.0
            }
        }
    ],
    "meshes" : [
        {
            "name" : "Cube.001",
            "primitives" : [
                {
                    "attributes" : {
                        "COLOR_0" : 5,
                        "NORMAL" : 2,
                        "POSITION" : 1,
                        "TANGENT" : 3,
                        "TEXCOORD_0" : 4
                    },
                    "indices" : 0,
                    "material" : 0
                }
            ]
        },
        {
            "name" : "Cube.002",
            "primitives" : [
                {
                    "attributes" : {
                        "COLOR_0" : 11,
                        "NORMAL" : 8,
                        "POSITION" : 7,
                        "TANGENT" : 9,
                        "TEXCOORD_0" : 10
                    },
                    "indices" : 6,
                    "material" : 0
                }
            ]
        }
    ],
    "nodes" : [
        {
            "mesh" : 1,
            "name" : "Bottom",
            "rotation" : [
                1.0,
                6.397577294592338e-07,
                -1.9470751055905566e-07,
                -5.106406320010137e-07
            ],
            "translation" : [
                -0.1648329794406891,
                0.10121748596429825,
                -5.30630313733127e-05
            ]
        },
        {
            "name" : "Hemi",
            "translation" : [
                8.059926986694336,
                -3.738536834716797,
                7.688858985900879
            ]
        },
        {
            "mesh" : 0,
            "name" : "Top",
            "rotation" : [
                0.5141576528549194,
                0.8576958179473877,
                -4.7373532652272843e-07,
                -2.8398702056620095e-07
            ],
            "translation" : [
                -0.1648329794406891,
                0.10121748596429825,
                -5.30630313733127e-05
            ]
        }
    ],
    "samplers" : [
        {}
    ],
    "scene" : 0,
    "scenes" : [
        {
            "name" : "Scene",
            "nodes" : [
                1,
                2,
                0
            ]
        }
    ],
    "textures" : [
        {
            "sampler" : 0,
            "source" : 0
        },
        {
            "sampler" : 0,
            "source" : 1
        }
    ]
}
